
<svg width="60" height="60" viewBox="0 0 60 60" fill="none" xmlns="http://www.w3.org/2000/svg">
<g clip-path="url(#clip0_10651_3318)">
<path d="M31.2341 5.26597C28.8738 2.98419 25.7642 1.63879 22.4852 1.48067C19.2061 1.32255 15.9815 2.36251 13.4127 4.40659C12.8553 3.51216 12.0782 2.77534 11.1554 2.26633C10.2325 1.75732 9.19475 1.49307 8.14087 1.49877C7.08699 1.50447 6.05212 1.77991 5.13486 2.29887C4.21759 2.81782 3.44847 3.563 2.90079 4.46341C2.3531 5.36382 2.04509 6.38946 2.00609 7.44264C1.96708 8.49581 2.1984 9.54143 2.67799 10.4799C3.15758 11.4183 3.86947 12.2184 4.74584 12.8037C5.62221 13.3891 6.63387 13.7403 7.68445 13.824C7.25123 16.479 7.6559 19.203 8.8422 21.6175C8.90678 21.7412 8.93216 21.8817 8.91497 22.0202C8.89777 22.1587 8.83882 22.2888 8.74595 22.393L4.7502 24.7992C3.73341 25.3345 2.92502 26.1948 2.45382 27.2428C1.98262 28.2908 1.87571 29.4664 2.15013 30.5823C2.42454 31.6981 3.0645 32.6901 3.96804 33.4C4.87158 34.11 5.98672 34.4972 7.13582 34.4998C7.34583 34.4998 7.55565 34.4874 7.7642 34.4627C8.52833 34.3738 9.26241 34.1129 9.91133 33.6998C10.5603 33.2866 11.1072 32.7318 11.5111 32.0771L14.3546 27.7775C14.4571 27.6771 14.5885 27.6114 14.7303 27.5894C14.872 27.5675 15.0171 27.5904 15.1452 27.6551C17.7119 28.8978 20.6104 29.2817 23.4121 28.7501C26.2139 28.2185 28.7702 26.7995 30.7033 24.703C33.3347 22.1108 34.8725 18.6086 35.0002 14.9171C35.0713 13.1357 34.7734 11.3589 34.1254 9.6981C33.4773 8.03729 32.4929 6.52835 31.2341 5.26597ZM4.7502 7.68734C4.7502 7.00747 4.9518 6.34286 5.32952 5.77757C5.70724 5.21228 6.2441 4.77168 6.87222 4.51151C7.50034 4.25133 8.19151 4.18326 8.85832 4.31589C9.52513 4.44853 10.1376 4.77592 10.6184 5.25666C11.0991 5.73741 11.4265 6.34991 11.5591 7.01672C11.6918 7.68353 11.6237 8.3747 11.3635 9.00282C11.1034 9.63094 10.6628 10.1678 10.0975 10.5455C9.53218 10.9232 8.86757 11.1248 8.1877 11.1248C7.27601 11.1248 6.40167 10.7627 5.75702 10.118C5.11236 9.47337 4.7502 8.59902 4.7502 7.68734ZM16.3552 25.1856C15.6664 24.8446 14.883 24.7449 14.1307 24.9025C13.3784 25.0601 12.7009 25.4658 12.2068 26.0546C12.1738 26.0945 12.1436 26.1357 12.1147 26.1783L9.19007 30.6031C8.9018 31.0744 8.45946 31.4316 7.93799 31.6141C7.41652 31.7966 6.84799 31.7932 6.32872 31.6046C5.80946 31.4159 5.37138 31.0535 5.08871 30.5788C4.80604 30.1041 4.69616 29.5463 4.7777 28.9998C4.83661 28.615 4.98749 28.2501 5.21752 27.9361C5.44756 27.622 5.74996 27.3681 6.09907 27.1958L10.2804 24.6782C10.3414 24.6417 10.3994 24.6003 10.4537 24.5545C11.0409 24.0595 11.4447 23.3814 11.6 22.6293C11.7554 21.8771 11.6534 21.0946 11.3103 20.4075C10.4124 18.5952 10.0804 16.5548 10.3574 14.5513L21.9528 26.1467C20.0334 26.3711 18.0899 26.0374 16.3552 25.1856ZM28.7591 22.7587C27.6788 23.8415 26.4044 24.7114 25.0026 25.3231C24.9902 25.3093 24.9861 25.2915 24.9723 25.2777L12.1202 12.4242C12.8221 11.8498 13.3882 11.1272 13.7781 10.3083C14.1679 9.48935 14.3719 8.59433 14.3752 7.68734C14.3752 7.52372 14.3394 7.36972 14.3271 7.21022C16.3628 5.32597 19.0345 4.27927 21.8084 4.27927C24.5824 4.27927 27.2541 5.32597 29.2898 7.21022C30.2827 8.20859 31.0582 9.40158 31.5677 10.7142C32.0771 12.0268 32.3095 13.4306 32.2502 14.8373C32.1425 17.8271 30.8931 20.662 28.7591 22.7587Z" fill="#1E293B"/>
<path d="M28.7591 22.7587C27.6788 23.8415 26.4044 24.7114 25.0026 25.3231C24.9902 25.3093 24.9861 25.2915 24.9723 25.2777L12.1202 12.4242C12.8221 11.8498 13.3882 11.1272 13.7781 10.3083C14.1679 9.48935 14.3719 8.59433 14.3752 7.68734C14.3752 7.52372 14.3394 7.36972 14.3271 7.21022C16.3628 5.32597 19.0345 4.27927 21.8084 4.27927C24.5824 4.27927 27.2541 5.32597 29.2898 7.21022C30.2827 8.20859 31.0582 9.40158 31.5677 10.7142C32.0771 12.0268 32.3095 13.4306 32.2502 14.8373C32.1425 17.8271 30.8931 20.662 28.7591 22.7587Z" fill="#4A19D2"/>
<path d="M16.3552 25.1856C15.6664 24.8446 14.883 24.7449 14.1307 24.9025C13.3784 25.0601 12.7009 25.4658 12.2068 26.0546C12.1738 26.0945 12.1436 26.1357 12.1147 26.1783L9.19007 30.6031C8.9018 31.0744 8.45946 31.4316 7.93799 31.6141C7.41652 31.7966 6.84799 31.7932 6.32872 31.6046C5.80946 31.4159 5.37138 31.0535 5.08871 30.5788C4.80604 30.1041 4.69616 29.5463 4.7777 28.9998C4.83661 28.615 4.98749 28.2501 5.21752 27.9361C5.44756 27.622 5.74996 27.3681 6.09907 27.1958L10.2804 24.6782C10.3414 24.6417 10.3994 24.6003 10.4537 24.5545C11.0409 24.0595 11.4447 23.3814 11.6 22.6293C11.7554 21.8771 11.6534 21.0946 11.3103 20.4075C10.4124 18.5952 10.0804 16.5548 10.3574 14.5513L21.9528 26.1467C20.0334 26.3711 18.0899 26.0374 16.3552 25.1856Z" fill="black"/>
<path d="M4.7502 7.68734C4.7502 7.00747 4.9518 6.34286 5.32952 5.77757C5.70724 5.21228 6.2441 4.77168 6.87222 4.51151C7.50034 4.25133 8.19151 4.18326 8.85832 4.31589C9.52513 4.44853 10.1376 4.77592 10.6184 5.25666C11.0991 5.73741 11.4265 6.34991 11.5591 7.01672C11.6918 7.68353 11.6237 8.3747 11.3635 9.00282C11.1034 9.63094 10.6628 10.1678 10.0975 10.5455C9.53218 10.9232 8.86757 11.1248 8.1877 11.1248C7.27601 11.1248 6.40167 10.7627 5.75702 10.118C5.11236 9.47337 4.7502 8.59902 4.7502 7.68734Z" fill="white"/>
</g>
<g clip-path="url(#clip1_10651_3318)">
<path d="M28.7659 5.26597C31.1262 2.98419 34.2358 1.63879 37.5148 1.48067C40.7939 1.32255 44.0185 2.36251 46.5873 4.40659C47.1447 3.51216 47.9218 2.77534 48.8446 2.26633C49.7675 1.75732 50.8052 1.49307 51.8591 1.49877C52.913 1.50447 53.9479 1.77991 54.8651 2.29887C55.7824 2.81782 56.5515 3.563 57.0992 4.46341C57.6469 5.36382 57.9549 6.38946 57.9939 7.44264C58.0329 8.49581 57.8016 9.54143 57.322 10.4799C56.8424 11.4183 56.1305 12.2184 55.2542 12.8037C54.3778 13.3891 53.3661 13.7403 52.3156 13.824C52.7488 16.479 52.3441 19.203 51.1578 21.6175C51.0932 21.7412 51.0678 21.8817 51.085 22.0202C51.1022 22.1587 51.1612 22.2888 51.2541 22.393L55.2498 24.7992C56.2666 25.3345 57.075 26.1948 57.5462 27.2428C58.0174 28.2908 58.1243 29.4664 57.8499 30.5823C57.5755 31.6981 56.9355 32.6901 56.032 33.4C55.1284 34.11 54.0133 34.4972 52.8642 34.4998C52.6542 34.4998 52.4444 34.4874 52.2358 34.4627C51.4717 34.3738 50.7376 34.1129 50.0887 33.6998C49.4397 33.2866 48.8928 32.7318 48.4889 32.0771L45.6454 27.7775C45.5429 27.6771 45.4115 27.6114 45.2697 27.5894C45.128 27.5675 44.9829 27.5904 44.8548 27.6551C42.2881 28.8978 39.3896 29.2817 36.5879 28.7501C33.7861 28.2185 31.2298 26.7995 29.2967 24.703C26.6653 22.1108 25.1275 18.6086 24.9998 14.9171C24.9287 13.1357 25.2266 11.3589 25.8746 9.6981C26.5227 8.03729 27.5071 6.52835 28.7659 5.26597ZM55.2498 7.68734C55.2498 7.00747 55.0482 6.34286 54.6705 5.77757C54.2928 5.21228 53.7559 4.77168 53.1278 4.51151C52.4997 4.25133 51.8085 4.18326 51.1417 4.31589C50.4749 4.44853 49.8624 4.77592 49.3816 5.25666C48.9009 5.73741 48.5735 6.34991 48.4409 7.01672C48.3082 7.68353 48.3763 8.3747 48.6365 9.00282C48.8966 9.63094 49.3372 10.1678 49.9025 10.5455C50.4678 10.9232 51.1324 11.1248 51.8123 11.1248C52.724 11.1248 53.5983 10.7627 54.243 10.118C54.8876 9.47337 55.2498 8.59902 55.2498 7.68734ZM43.6448 25.1856C44.3336 24.8446 45.117 24.7449 45.8693 24.9025C46.6216 25.0601 47.2991 25.4658 47.7932 26.0546C47.8262 26.0945 47.8564 26.1357 47.8853 26.1783L50.8099 30.6031C51.0982 31.0744 51.5405 31.4316 52.062 31.6141C52.5835 31.7966 53.152 31.7932 53.6713 31.6046C54.1905 31.4159 54.6286 31.0535 54.9113 30.5788C55.194 30.1041 55.3038 29.5463 55.2223 28.9998C55.1634 28.615 55.0125 28.2501 54.7825 27.9361C54.5524 27.622 54.25 27.3681 53.9009 27.1958L49.7196 24.6782C49.6586 24.6417 49.6006 24.6003 49.5463 24.5545C48.9591 24.0595 48.5553 23.3814 48.4 22.6293C48.2446 21.8771 48.3466 21.0946 48.6897 20.4075C49.5876 18.5952 49.9196 16.5548 49.6426 14.5513L38.0472 26.1467C39.9666 26.3711 41.9101 26.0374 43.6448 25.1856ZM31.2409 22.7587C32.3212 23.8415 33.5956 24.7114 34.9974 25.3231C35.0098 25.3093 35.0139 25.2915 35.0277 25.2777L47.8798 12.4242C47.1779 11.8498 46.6118 11.1272 46.2219 10.3083C45.8321 9.48935 45.6281 8.59433 45.6248 7.68734C45.6248 7.52372 45.6606 7.36972 45.6729 7.21022C43.6372 5.32597 40.9655 4.27927 38.1916 4.27927C35.4176 4.27927 32.7459 5.32597 30.7102 7.21022C29.7173 8.20859 28.9418 9.40158 28.4323 10.7142C27.9229 12.0268 27.6905 13.4306 27.7498 14.8373C27.8575 17.8271 29.1069 20.662 31.2409 22.7587Z" fill="#1E293B"/>
<path d="M55.2498 7.68734C55.2498 7.00747 55.0482 6.34286 54.6705 5.77757C54.2928 5.21228 53.7559 4.77168 53.1278 4.51151C52.4997 4.25133 51.8085 4.18326 51.1417 4.31589C50.4749 4.44853 49.8624 4.77592 49.3816 5.25666C48.9009 5.73741 48.5735 6.34991 48.4409 7.01672C48.3082 7.68353 48.3763 8.3747 48.6365 9.00282C48.8966 9.63094 49.3372 10.1678 49.9025 10.5455C50.4678 10.9232 51.1324 11.1248 51.8123 11.1248C52.724 11.1248 53.5983 10.7627 54.243 10.118C54.8876 9.47337 55.2498 8.59902 55.2498 7.68734Z" fill="white"/>
<path d="M31.2409 22.7587C32.3212 23.8415 33.5956 24.7114 34.9974 25.3231C35.0098 25.3093 35.0139 25.2915 35.0277 25.2777L47.8798 12.4242C47.1779 11.8498 46.6118 11.1272 46.2219 10.3083C45.8321 9.48935 45.6281 8.59433 45.6248 7.68734C45.6248 7.52372 45.6606 7.36972 45.6729 7.21022C43.6372 5.32597 40.9655 4.27927 38.1916 4.27927C35.4176 4.27927 32.7459 5.32597 30.7102 7.21022C29.7173 8.20859 28.9418 9.40158 28.4323 10.7142C27.9229 12.0268 27.6905 13.4306 27.7498 14.8373C27.8575 17.8271 29.1069 20.662 31.2409 22.7587Z" fill="#D24A19"/>
<path d="M43.6448 25.1856C44.3336 24.8446 45.117 24.7449 45.8693 24.9025C46.6216 25.0601 47.2991 25.4658 47.7932 26.0546C47.8262 26.0945 47.8564 26.1357 47.8853 26.1783L50.8099 30.6031C51.0982 31.0744 51.5405 31.4316 52.062 31.6141C52.5835 31.7966 53.152 31.7932 53.6713 31.6046C54.1905 31.4159 54.6286 31.0535 54.9113 30.5788C55.194 30.1041 55.3038 29.5463 55.2223 28.9998C55.1634 28.615 55.0125 28.2501 54.7825 27.9361C54.5524 27.622 54.25 27.3681 53.9009 27.1958L49.7196 24.6782C49.6586 24.6417 49.6006 24.6003 49.5463 24.5545C48.9591 24.0595 48.5553 23.3814 48.4 22.6293C48.2446 21.8771 48.3466 21.0946 48.6897 20.4075C49.5876 18.5952 49.9196 16.5548 49.6426 14.5513L38.0472 26.1467C39.9666 26.3711 41.9101 26.0374 43.6448 25.1856Z" fill="black"/>
</g>
<path d="M25.894 36.004H23.822C23.7193 36.004 23.668 35.948 23.668 35.836V34.884C23.668 34.772 23.7193 34.716 23.822 34.716H28.736C29.2867 34.716 29.562 34.982 29.562 35.514V35.808C29.562 35.8547 29.5433 35.9013 29.506 35.948C29.478 35.9853 29.4313 36.004 29.366 36.004H27.28V42.346C27.28 42.4487 27.2333 42.5 27.14 42.5H26.062C25.95 42.5 25.894 42.4487 25.894 42.346V36.004ZM32.6241 36.004H30.5521C30.4494 36.004 30.3981 35.948 30.3981 35.836V34.884C30.3981 34.772 30.4494 34.716 30.5521 34.716H35.4661C36.0167 34.716 36.2921 34.982 36.2921 35.514V35.808C36.2921 35.8547 36.2734 35.9013 36.2361 35.948C36.2081 35.9853 36.1614 36.004 36.0961 36.004H34.0101V42.346C34.0101 42.4487 33.9634 42.5 33.8701 42.5H32.7921C32.6801 42.5 32.6241 42.4487 32.6241 42.346V36.004Z" fill="#1E293B"/>
<path d="M10.9 51.47V53.41C10.9 53.47 10.8733 53.5 10.82 53.5H10.22C10.1667 53.5 10.14 53.47 10.14 53.41V48.03C10.14 47.97 10.1667 47.94 10.22 47.94H12.12C12.7667 47.94 13.2533 48.1 13.58 48.42C13.9067 48.7333 14.07 49.1633 14.07 49.71C14.07 50.1367 13.96 50.49 13.74 50.77C13.52 51.0433 13.2433 51.24 12.91 51.36L14.11 53.41C14.1233 53.43 14.1267 53.45 14.12 53.47C14.1133 53.49 14.0933 53.5 14.06 53.5H13.43C13.3433 53.5 13.2767 53.4633 13.23 53.39L12.14 51.47H10.9ZM10.9 50.77H12.16C12.5133 50.77 12.79 50.6833 12.99 50.51C13.1967 50.33 13.3 50.0533 13.3 49.68C13.3 49.3467 13.2 49.0933 13 48.92C12.8 48.74 12.5333 48.65 12.2 48.65H10.9V50.77ZM16.2905 51.97L15.7905 53.38C15.7638 53.46 15.7138 53.5 15.6405 53.5H15.0505C14.9838 53.5 14.9638 53.47 14.9905 53.41L17.0105 48.03C17.0305 47.97 17.0671 47.94 17.1205 47.94H17.3105C17.5038 47.94 17.6538 47.98 17.7605 48.06C17.8671 48.14 17.9605 48.2867 18.0405 48.5L19.8905 53.41C19.9171 53.47 19.8938 53.5 19.8205 53.5H19.2305C19.1705 53.5 19.1305 53.49 19.1105 53.47C19.0905 53.45 19.0705 53.42 19.0505 53.38L18.5405 51.97H16.2905ZM16.5305 51.29H18.3005L17.4105 48.87L16.5305 51.29ZM24.2581 52.12V48.03C24.2581 47.97 24.2848 47.94 24.3381 47.94H24.4081C24.8081 47.94 25.0081 48.1767 25.0081 48.65V53.41C25.0081 53.47 24.9848 53.5 24.9381 53.5H24.3981C24.3048 53.5 24.2315 53.4567 24.1781 53.37L21.7781 49.47V53.41C21.7781 53.47 21.7515 53.5 21.6981 53.5H21.0981C21.0448 53.5 21.0181 53.47 21.0181 53.41V48.03C21.0181 47.97 21.0448 47.94 21.0981 47.94H21.2781C21.4715 47.94 21.6115 47.9767 21.6981 48.05C21.7915 48.1233 21.8848 48.2367 21.9781 48.39L24.2581 52.12ZM27.4711 51.72V53.41C27.4711 53.47 27.4444 53.5 27.3911 53.5H26.7911C26.7378 53.5 26.7111 53.47 26.7111 53.41V48.03C26.7111 47.97 26.7378 47.94 26.7911 47.94H26.8611C27.2678 47.94 27.4711 48.1767 27.4711 48.65V50.74L29.7211 48.06C29.7611 48.0133 29.7911 47.9833 29.8111 47.97C29.8378 47.95 29.8744 47.94 29.9211 47.94H30.5411C30.5744 47.94 30.5911 47.9533 30.5911 47.98C30.5978 48 30.5944 48.0167 30.5811 48.03L28.8111 50.14L30.8011 53.4C30.8211 53.4267 30.8278 53.45 30.8211 53.47C30.8144 53.49 30.7911 53.5 30.7511 53.5H30.1111C30.0311 53.5 29.9678 53.4633 29.9211 53.39L28.2911 50.74L27.4711 51.72ZM32.0837 53.5C32.0303 53.5 32.0037 53.47 32.0037 53.41V48.03C32.0037 47.97 32.0303 47.94 32.0837 47.94H32.1537C32.5603 47.94 32.7637 48.1767 32.7637 48.65V53.41C32.7637 53.47 32.737 53.5 32.6837 53.5H32.0837ZM37.6945 52.12V48.03C37.6945 47.97 37.7211 47.94 37.7745 47.94H37.8445C38.2445 47.94 38.4445 48.1767 38.4445 48.65V53.41C38.4445 53.47 38.4211 53.5 38.3745 53.5H37.8345C37.7411 53.5 37.6678 53.4567 37.6145 53.37L35.2145 49.47V53.41C35.2145 53.47 35.1878 53.5 35.1345 53.5H34.5345C34.4811 53.5 34.4545 53.47 34.4545 53.41V48.03C34.4545 47.97 34.4811 47.94 34.5345 47.94H34.7145C34.9078 47.94 35.0478 47.9767 35.1345 48.05C35.2278 48.1233 35.3211 48.2367 35.4145 48.39L37.6945 52.12ZM43.9274 52.43V51.26H42.8874C42.7408 51.26 42.6274 51.22 42.5474 51.14C42.4741 51.06 42.4374 50.9533 42.4374 50.82V50.66C42.4374 50.5867 42.4708 50.55 42.5374 50.55H44.5574C44.6241 50.55 44.6574 50.5833 44.6574 50.65V52.49C44.6574 52.59 44.6441 52.6667 44.6174 52.72C44.5908 52.7733 44.5408 52.8367 44.4674 52.91C44.2074 53.1233 43.9208 53.2933 43.6074 53.42C43.3008 53.5467 42.9608 53.61 42.5874 53.61C42.1008 53.61 41.6608 53.5 41.2674 53.28C40.8741 53.06 40.5641 52.7367 40.3374 52.31C40.1108 51.8767 39.9974 51.3433 39.9974 50.71C39.9974 50.1233 40.1041 49.6167 40.3174 49.19C40.5374 48.7567 40.8441 48.4233 41.2374 48.19C41.6374 47.95 42.1041 47.83 42.6374 47.83C42.9308 47.83 43.1874 47.8567 43.4074 47.91C43.6341 47.9567 43.8408 48.0233 44.0274 48.11C44.2008 48.1767 44.3174 48.2567 44.3774 48.35C44.4374 48.4433 44.4508 48.5633 44.4174 48.71L44.3674 48.92C44.3408 48.9867 44.3074 49.02 44.2674 49.02C44.2341 49.02 44.1874 49 44.1274 48.96C43.9208 48.8333 43.6941 48.7333 43.4474 48.66C43.2008 48.5867 42.9441 48.55 42.6774 48.55C42.0841 48.55 41.6174 48.7367 41.2774 49.11C40.9441 49.4767 40.7774 50.0267 40.7774 50.76C40.7774 51.4333 40.9374 51.9567 41.2574 52.33C41.5774 52.7033 42.0208 52.89 42.5874 52.89C42.8208 52.89 43.0508 52.8567 43.2774 52.79C43.5041 52.7233 43.7208 52.6033 43.9274 52.43ZM45.7522 52.27C45.7522 52.1367 45.7955 52.07 45.8822 52.07C45.9289 52.07 45.9722 52.0933 46.0122 52.14C46.2122 52.38 46.4389 52.57 46.6922 52.71C46.9522 52.8433 47.2655 52.91 47.6322 52.91C48.0455 52.91 48.3655 52.83 48.5922 52.67C48.8189 52.5033 48.9322 52.28 48.9322 52C48.9322 51.8 48.8589 51.64 48.7122 51.52C48.5655 51.3933 48.3789 51.2867 48.1522 51.2C47.9255 51.1133 47.6822 51.0267 47.4222 50.94C47.1622 50.8533 46.9189 50.75 46.6922 50.63C46.4655 50.5033 46.2789 50.34 46.1322 50.14C45.9855 49.94 45.9122 49.68 45.9122 49.36C45.9122 49.0467 45.9922 48.7767 46.1522 48.55C46.3189 48.3233 46.5422 48.15 46.8222 48.03C47.1022 47.9033 47.4222 47.84 47.7822 47.84C48.0555 47.84 48.3022 47.8633 48.5222 47.91C48.7489 47.9567 48.9555 48.0233 49.1422 48.11C49.4755 48.23 49.6022 48.43 49.5222 48.71L49.4722 48.91C49.4589 48.9767 49.4322 49.01 49.3922 49.01C49.3655 49.01 49.3155 48.99 49.2422 48.95C49.0355 48.8167 48.8055 48.7133 48.5522 48.64C48.3055 48.56 48.0455 48.52 47.7722 48.52C47.4589 48.52 47.1989 48.59 46.9922 48.73C46.7855 48.87 46.6822 49.0667 46.6822 49.32C46.6822 49.5267 46.7555 49.6933 46.9022 49.82C47.0489 49.9467 47.2355 50.0533 47.4622 50.14C47.6889 50.22 47.9322 50.3033 48.1922 50.39C48.4522 50.4767 48.6955 50.58 48.9222 50.7C49.1489 50.8133 49.3355 50.9667 49.4822 51.16C49.6289 51.3533 49.7022 51.6033 49.7022 51.91C49.7022 52.4167 49.5255 52.8267 49.1722 53.14C48.8255 53.4533 48.3389 53.61 47.7122 53.61C47.2589 53.61 46.8855 53.5367 46.5922 53.39C46.3055 53.2433 46.0922 53.0667 45.9522 52.86C45.8189 52.6467 45.7522 52.45 45.7522 52.27Z" fill="#1E293B"/>
<defs>
<clipPath id="clip0_10651_3318">
<rect width="33" height="33" fill="white" transform="translate(2 1.5)"/>
</clipPath>
<clipPath id="clip1_10651_3318">
<rect width="33" height="33" fill="white" transform="matrix(-1 0 0 1 58 1.5)"/>
</clipPath>
</defs>
</svg>
